# xmcd
# 
# Track frame offsets:
#     150
#     25657
#     53903
#     78415
#     105160
#     137962
#     171539
#     190148
#     214027
# 
# Disc length: 3403
# 
# Revision: 0
# Processed by: cddbd v1.5.2PL0 Copyright (c) Steve Scherf et al.
# Submitted via: BonkEnc v1.0.15
# 
DISCID=750d4909
DTITLE=Joe Bonamassa - at BBC Maida Vale Studio
DYEAR=0
DGENRE=Blues
TTITLE0=Дорожка 1
TTITLE1=Дорожка 2
TTITLE2=Дорожка 3
TTITLE3=Дорожка 4
TTITLE4=Дорожка 5
TTITLE5=Дорожка 6
TTITLE6=Дорожка 7
TTITLE7=Дорожка 8
TTITLE8=Дорожка 9
EXTD=
EXTT0=
EXTT1=
EXTT2=
EXTT3=
EXTT4=
EXTT5=
EXTT6=
EXTT7=
EXTT8=
PLAYORDER=
